<svg width="122" height="32" viewBox="0 0 122 32" fill="none" xmlns="http://www.w3.org/2000/svg">
<rect x="2.01562" width="19.1801" height="2.85135" transform="rotate(45 2.01562 0)" fill="#42C83C"/>
<rect x="2.01562" y="5.5835" width="19.1801" height="2.85135" transform="rotate(45 2.01562 5.5835)" fill="#3AB435"/>
<rect x="2.01562" y="11.0023" width="19.1801" height="2.85135" transform="rotate(45 2.01562 11.0023)" fill="#329D2D"/>
<rect x="2.01562" y="16.4215" width="19.1801" height="2.85135" transform="rotate(45 2.01562 16.4215)" fill="#216D1D"/>
<path d="M13.8312 26.1615C12.898 26.1615 12.1489 25.9639 11.5841 25.5687C11.0315 25.1612 10.6263 24.5745 10.3684 23.8088C10.1228 23.0431 10 22.123 10 21.0486V16.0282C10 14.9291 10.1105 13.9966 10.3315 13.2309C10.5649 12.4529 10.9701 11.8601 11.5472 11.4525C12.1366 11.045 12.9532 10.8412 13.997 10.8412C14.9302 10.8412 15.6793 11.0017 16.2441 11.3228C16.8213 11.6316 17.2388 12.1132 17.4966 12.7678C17.7545 13.41 17.8834 14.2251 17.8834 15.2131V15.7689H15.931V15.3058C15.931 14.6512 15.888 14.1201 15.8021 13.7126C15.7161 13.2927 15.5381 12.9839 15.2679 12.7863C15.01 12.5764 14.5987 12.4714 14.0338 12.4714C13.4198 12.4714 12.9716 12.6134 12.6892 12.8975C12.4191 13.1815 12.2472 13.5706 12.1735 14.0646C12.1121 14.5462 12.0814 15.0958 12.0814 15.7133V21.2709C12.0814 21.9872 12.1305 22.5862 12.2287 23.0678C12.3392 23.5495 12.5419 23.9076 12.8366 24.1423C13.1313 24.3769 13.5488 24.4942 14.0891 24.4942C14.6294 24.4942 15.0469 24.3646 15.3416 24.1052C15.6363 23.8459 15.8389 23.463 15.9494 22.9567C16.0599 22.4503 16.1152 21.8204 16.1152 21.0671V20.0297H14.218V18.5477H17.994V25.9763H16.6862L16.4836 24.2534C16.2871 24.8092 15.9801 25.2661 15.5626 25.6243C15.1451 25.9824 14.568 26.1615 13.8312 26.1615Z" fill="black"/>
<path d="M19.323 25.9763L22.4911 10.9709H24.4988L27.6854 25.9763H25.7145L25.033 22.1971H21.9938L21.2755 25.9763H19.323ZM22.2701 20.6966H24.7567L23.5042 13.9349L22.2701 20.6966Z" fill="black"/>
<path d="M29.1992 25.9763V10.9709H30.6175L34.8539 20.9374V10.9709H36.5853V25.9763H35.2591L30.9675 15.7318V25.9763H29.1992Z" fill="black"/>
<path d="M47.6544 26.2356C45.0757 26.2356 42.6997 24.2349 42.6997 20.7892C42.6997 17.3435 45.0757 15.3428 47.6544 15.3428C50.2331 15.3428 52.6092 17.3435 52.6092 20.7892C52.6092 24.2349 50.2331 26.2356 47.6544 26.2356ZM47.6544 24.0126C49.0543 24.0126 49.8463 22.7529 49.8463 20.7892C49.8463 18.8441 49.0543 17.5658 47.6544 17.5658C46.2546 17.5658 45.4626 18.8441 45.4626 20.7892C45.4626 22.7529 46.2546 24.0126 47.6544 24.0126Z" fill="black"/>
<path d="M57.0513 25.9763L53.5332 15.6022H56.2593L57.7696 20.7707C58.0459 21.7896 58.3222 22.864 58.5985 23.92H58.6906C58.9669 22.864 59.2432 21.7896 59.5195 20.7707L61.0299 15.6022H63.627L60.1826 25.9763H57.0513Z" fill="black"/>
<path d="M69.6935 26.2356C66.8017 26.2356 64.5546 24.2164 64.5546 20.7892C64.5546 17.4362 66.9122 15.3428 69.362 15.3428C72.1986 15.3428 73.6721 17.4362 73.6721 20.289C73.6721 20.8077 73.6168 21.3079 73.5432 21.5487H67.1885C67.4095 23.2531 68.5147 24.1423 70.0435 24.1423C70.8908 24.1423 71.6276 23.8829 72.3643 23.4198L73.2853 25.0871C72.2722 25.791 70.9645 26.2356 69.6935 26.2356ZM67.1517 19.7333H71.3513C71.3513 18.3439 70.725 17.4547 69.3988 17.4547C68.3121 17.4547 67.3543 18.2327 67.1517 19.7333Z" fill="black"/>
<path d="M75.9018 25.9763V15.6022H78.1121L78.3148 17.4362H78.37C79.1252 16.0838 80.2304 15.3428 81.2987 15.3428C81.8697 15.3428 82.2012 15.4354 82.5143 15.5651L82.0539 17.9178C81.6855 17.8067 81.3908 17.7511 80.9671 17.7511C80.1567 17.7511 79.1805 18.2883 78.6095 19.7888V25.9763H75.9018Z" fill="black"/>
<path d="M93.3181 26.2356C91.4209 26.2356 90.7762 24.9944 90.7762 23.0678V11.1932H93.4655V23.179C93.4655 23.8088 93.7602 24.0126 93.9996 24.0126C94.1101 24.0126 94.2022 24.0126 94.368 23.9755L94.6996 25.9948C94.4048 26.1245 93.9628 26.2356 93.3181 26.2356ZM84.3848 25.9763V17.7511H83.0033V15.7318L84.3848 15.6207V14.7685C84.3848 12.6011 85.3794 10.9338 87.9765 10.9338C88.7686 10.9338 89.4685 11.1191 89.929 11.2858L89.4316 13.305C89.0817 13.1568 88.6765 13.0827 88.3449 13.0827C87.5345 13.0827 87.0924 13.5644 87.0924 14.7129V15.6022H89.0264V17.7511H87.0924V25.9763H84.3848Z" fill="black"/>
<path d="M100.88 26.2356C98.301 26.2356 95.9249 24.2349 95.9249 20.7892C95.9249 17.3435 98.301 15.3428 100.88 15.3428C103.458 15.3428 105.834 17.3435 105.834 20.7892C105.834 24.2349 103.458 26.2356 100.88 26.2356ZM100.88 24.0126C102.28 24.0126 103.072 22.7529 103.072 20.7892C103.072 18.8441 102.28 17.5658 100.88 17.5658C99.4798 17.5658 98.6878 18.8441 98.6878 20.7892C98.6878 22.7529 99.4798 24.0126 100.88 24.0126Z" fill="black"/>
<path d="M109.669 25.9763L106.998 15.6022H109.705L110.829 20.7151C111.032 21.734 111.161 22.7158 111.345 23.7532H111.418C111.621 22.7158 111.805 21.7155 112.063 20.7151L113.316 15.6022H115.71L117 20.7151C117.239 21.734 117.423 22.7158 117.644 23.7532H117.736C117.92 22.7158 118.068 21.734 118.252 20.7151L119.376 15.6022H121.881L119.339 25.9763H116.152L115.066 21.4561C114.844 20.4743 114.679 19.5295 114.476 18.4365H114.384C114.181 19.5295 114.034 20.4928 113.813 21.4561L112.763 25.9763H109.669Z" fill="black"/>
</svg>
