<svg width="150" height="32" viewBox="0 0 150 32" fill="none" xmlns="http://www.w3.org/2000/svg">
<path fill-rule="evenodd" clip-rule="evenodd" d="M3.07424 23.6089H0V31.6113H24.1199V23.6089H21.0477V28.7034H3.07424V23.6089Z" fill="white"/>
<rect x="5.0791" y="23.9438" width="14.3128" height="2.30851" fill="#42C83C"/>
<rect x="36.0137" y="27.6372" width="14.3128" height="1.84681" fill="#42C83C"/>
<rect x="5.74707" y="18.8586" width="14.2924" height="2.12474" transform="rotate(10.1716 5.74707 18.8586)" fill="#42C83C"/>
<rect x="7.13086" y="13.9365" width="14.2924" height="2.12474" transform="rotate(20.1554 7.13086 13.9365)" fill="#42C83C"/>
<rect x="9.65332" y="8.7522" width="14.2924" height="2.12474" transform="rotate(32.5869 9.65332 8.7522)" fill="#42C83C"/>
<rect x="13.8301" y="4.19824" width="14.2924" height="2.12474" transform="rotate(46.4193 13.8301 4.19824)" fill="#42C83C"/>
<rect x="22.9941" y="0.0620117" width="14.2924" height="2.12474" transform="rotate(76.1301 22.9941 0.0620117)" fill="#42C83C"/>
<rect x="33.5479" y="0.672607" width="14.2924" height="2.12474" transform="rotate(104.917 33.5479 0.672607)" fill="#42C83C"/>
<rect x="42.2881" y="6.3147" width="14.2924" height="2.12474" transform="rotate(127.747 42.2881 6.3147)" fill="#42C83C"/>
<rect x="49.2119" y="17.5264" width="14.2924" height="2.12474" transform="rotate(160.985 49.2119 17.5264)" fill="#42C83C"/>
<path d="M41.6646 26.5639C40.7289 26.5639 39.9779 26.3669 39.4115 25.9729C38.8575 25.5666 38.4512 24.9818 38.1926 24.2184C37.9464 23.4551 37.8232 22.5378 37.8232 21.4667V16.4618C37.8232 15.3661 37.9341 14.4365 38.1557 13.6732C38.3896 12.8975 38.7959 12.3065 39.3746 11.9002C39.9655 11.4939 40.7843 11.2908 41.8308 11.2908C42.7665 11.2908 43.5176 11.4508 44.0839 11.7709C44.6626 12.0787 45.0812 12.5589 45.3398 13.2115C45.5983 13.8517 45.7276 14.6643 45.7276 15.6492V16.2033H43.77V15.7416C43.77 15.089 43.7269 14.5596 43.6407 14.1533C43.5545 13.7347 43.376 13.4269 43.1051 13.2299C42.8466 13.0206 42.4341 12.916 41.8678 12.916C41.2522 12.916 40.8028 13.0576 40.5196 13.3407C40.2487 13.6239 40.0763 14.0117 40.0025 14.5042C39.9409 14.9844 39.9101 15.5323 39.9101 16.1479V21.6883C39.9101 22.4024 39.9594 22.9995 40.0579 23.4797C40.1687 23.9599 40.3718 24.3169 40.6673 24.5509C40.9628 24.7848 41.3814 24.9018 41.9232 24.9018C42.4649 24.9018 42.8835 24.7725 43.179 24.5139C43.4745 24.2554 43.6776 23.8737 43.7884 23.3689C43.8992 22.8641 43.9546 22.2362 43.9546 21.4852V20.4509H42.0524V18.9735H45.8384V26.3792H44.5272L44.324 24.6617C44.127 25.2157 43.8192 25.6713 43.4006 26.0283C42.982 26.3854 42.4033 26.5639 41.6646 26.5639Z" fill="white"/>
<path d="M47.171 26.3792L50.3475 11.42H52.3605L55.5555 26.3792H53.5794L52.8961 22.6117H49.8489L49.1286 26.3792H47.171ZM50.1259 21.1158H52.6191L51.3632 14.3749L50.1259 21.1158Z" fill="white"/>
<path d="M57.0733 26.3792V11.42H58.4954L62.743 21.3559V11.42H64.479V26.3792H63.1493L58.8463 16.1663V26.3792H57.0733Z" fill="white"/>
<path d="M75.5775 26.6378C72.992 26.6378 70.6096 24.6432 70.6096 21.2081C70.6096 17.7731 72.992 15.7785 75.5775 15.7785C78.163 15.7785 80.5454 17.7731 80.5454 21.2081C80.5454 24.6432 78.163 26.6378 75.5775 26.6378ZM75.5775 24.4216C76.9811 24.4216 77.7752 23.1658 77.7752 21.2081C77.7752 19.269 76.9811 17.9947 75.5775 17.9947C74.1739 17.9947 73.3798 19.269 73.3798 21.2081C73.3798 23.1658 74.1739 24.4216 75.5775 24.4216Z" fill="white"/>
<path d="M84.9992 26.3792L81.4718 16.0371H84.2051L85.7195 21.1897C85.9965 22.2054 86.2735 23.2766 86.5506 24.3292H86.6429C86.9199 23.2766 87.197 22.2054 87.474 21.1897L88.9884 16.0371H91.5924L88.1388 26.3792H84.9992Z" fill="white"/>
<path d="M97.675 26.6378C94.7755 26.6378 92.5224 24.6247 92.5224 21.2081C92.5224 17.8654 94.8863 15.7785 97.3426 15.7785C100.187 15.7785 101.664 17.8654 101.664 20.7095C101.664 21.2266 101.609 21.7252 101.535 21.9653H95.1633C95.3849 23.6644 96.493 24.5509 98.0259 24.5509C98.8754 24.5509 99.6141 24.2923 100.353 23.8306L101.276 25.4927C100.261 26.1945 98.9493 26.6378 97.675 26.6378ZM95.1264 20.1555H99.3371C99.3371 18.7703 98.7092 17.8839 97.3795 17.8839C96.2899 17.8839 95.3295 18.6595 95.1264 20.1555Z" fill="white"/>
<path d="M103.9 26.3792V16.0371H106.116L106.319 17.8654H106.374C107.132 16.5172 108.24 15.7785 109.311 15.7785C109.883 15.7785 110.216 15.8709 110.53 16.0001L110.068 18.3456C109.699 18.2348 109.403 18.1794 108.978 18.1794C108.166 18.1794 107.187 18.7149 106.615 20.2109V26.3792H103.9Z" fill="white"/>
<path d="M121.362 26.6378C119.46 26.6378 118.814 25.4004 118.814 23.4797V11.6417H121.51V23.5905C121.51 24.2184 121.805 24.4216 122.046 24.4216C122.156 24.4216 122.249 24.4216 122.415 24.3846L122.747 26.3977C122.452 26.5269 122.009 26.6378 121.362 26.6378ZM112.405 26.3792V18.1794H111.02V16.1663L112.405 16.0555V15.206C112.405 13.0452 113.402 11.3831 116.006 11.3831C116.801 11.3831 117.502 11.5678 117.964 11.734L117.465 13.747C117.115 13.5993 116.708 13.5254 116.376 13.5254C115.563 13.5254 115.12 14.0056 115.12 15.1506V16.0371H117.059V18.1794H115.12V26.3792H112.405Z" fill="white"/>
<path d="M128.944 26.6378C126.358 26.6378 123.976 24.6432 123.976 21.2081C123.976 17.7731 126.358 15.7785 128.944 15.7785C131.529 15.7785 133.912 17.7731 133.912 21.2081C133.912 24.6432 131.529 26.6378 128.944 26.6378ZM128.944 24.4216C130.347 24.4216 131.141 23.1658 131.141 21.2081C131.141 19.269 130.347 17.9947 128.944 17.9947C127.54 17.9947 126.746 19.269 126.746 21.2081C126.746 23.1658 127.54 24.4216 128.944 24.4216Z" fill="white"/>
<path d="M137.756 26.3792L135.078 16.0371H137.793L138.92 21.1343C139.123 22.15 139.252 23.1288 139.437 24.163H139.511C139.714 23.1288 139.898 22.1315 140.157 21.1343L141.413 16.0371H143.814L145.106 21.1343C145.346 22.15 145.531 23.1288 145.753 24.163H145.845C146.03 23.1288 146.178 22.15 146.362 21.1343L147.489 16.0371H150L147.452 26.3792H144.257L143.167 21.873C142.946 20.8942 142.779 19.9523 142.576 18.8627H142.484C142.281 19.9523 142.133 20.9126 141.911 21.873L140.859 26.3792H137.756Z" fill="white"/>
</svg>
