<svg width="150" height="32" viewBox="0 0 150 32" fill="none" xmlns="http://www.w3.org/2000/svg">
<path fill-rule="evenodd" clip-rule="evenodd" d="M3.07424 23.5469H0V31.5493H24.1199V23.5469H21.0477V28.6412H3.07424V23.5469Z" fill="#AEAEAE"/>
<rect x="5.0791" y="23.8818" width="14.3128" height="2.30851" fill="#42C83C"/>
<rect x="36.0137" y="27.5752" width="14.3128" height="1.84681" fill="#42C83C"/>
<rect x="5.74707" y="18.7966" width="14.2924" height="2.12474" transform="rotate(10.1716 5.74707 18.7966)" fill="#42C83C"/>
<rect x="7.13086" y="13.8745" width="14.2924" height="2.12474" transform="rotate(20.1554 7.13086 13.8745)" fill="#42C83C"/>
<rect x="9.65332" y="8.69019" width="14.2924" height="2.12474" transform="rotate(32.5869 9.65332 8.69019)" fill="#42C83C"/>
<rect x="13.8301" y="4.13623" width="14.2924" height="2.12474" transform="rotate(46.4193 13.8301 4.13623)" fill="#42C83C"/>
<rect x="22.9941" width="14.2924" height="2.12474" transform="rotate(76.1301 22.9941 0)" fill="#42C83C"/>
<rect x="33.5479" y="0.611084" width="14.2924" height="2.12474" transform="rotate(104.917 33.5479 0.611084)" fill="#42C83C"/>
<rect x="42.2881" y="6.25269" width="14.2924" height="2.12474" transform="rotate(127.747 42.2881 6.25269)" fill="#42C83C"/>
<rect x="49.2119" y="17.4644" width="14.2924" height="2.12474" transform="rotate(160.985 49.2119 17.4644)" fill="#42C83C"/>
<path d="M41.6646 26.5021C40.7289 26.5021 39.9779 26.3051 39.4115 25.9111C38.8575 25.5048 38.4512 24.92 38.1926 24.1567C37.9464 23.3933 37.8232 22.4761 37.8232 21.4049V16.4001C37.8232 15.3043 37.9341 14.3747 38.1557 13.6114C38.3896 12.8357 38.7959 12.2447 39.3746 11.8385C39.9655 11.4322 40.7843 11.229 41.8308 11.229C42.7665 11.229 43.5176 11.3891 44.0839 11.7092C44.6626 12.017 45.0812 12.4971 45.3398 13.1497C45.5983 13.7899 45.7276 14.6025 45.7276 15.5875V16.1415H43.77V15.6798C43.77 15.0273 43.7269 14.4979 43.6407 14.0916C43.5545 13.6729 43.376 13.3651 43.1051 13.1682C42.8466 12.9588 42.4341 12.8542 41.8678 12.8542C41.2522 12.8542 40.8028 12.9958 40.5196 13.279C40.2487 13.5621 40.0763 13.95 40.0025 14.4425C39.9409 14.9226 39.9101 15.4705 39.9101 16.0861V21.6265C39.9101 22.3406 39.9594 22.9378 40.0579 23.4179C40.1687 23.8981 40.3718 24.2552 40.6673 24.4891C40.9628 24.723 41.3814 24.84 41.9232 24.84C42.4649 24.84 42.8835 24.7107 43.179 24.4522C43.4745 24.1936 43.6776 23.8119 43.7884 23.3071C43.8992 22.8023 43.9546 22.1744 43.9546 21.4234V20.3892H42.0524V18.9117H45.8384V26.3174H44.5272L44.324 24.5999C44.127 25.1539 43.8192 25.6095 43.4006 25.9665C42.982 26.3236 42.4033 26.5021 41.6646 26.5021Z" fill="black"/>
<path d="M47.171 26.3174L50.3475 11.3583H52.3605L55.5555 26.3174H53.5794L52.8961 22.5499H49.8489L49.1286 26.3174H47.171ZM50.1259 21.054H52.6191L51.3632 14.3132L50.1259 21.054Z" fill="black"/>
<path d="M57.0733 26.3174V11.3583H58.4954L62.743 21.2941V11.3583H64.479V26.3174H63.1493L58.8463 16.1046V26.3174H57.0733Z" fill="black"/>
<path d="M75.5775 26.576C72.992 26.576 70.6096 24.5814 70.6096 21.1464C70.6096 17.7113 72.992 15.7167 75.5775 15.7167C78.163 15.7167 80.5454 17.7113 80.5454 21.1464C80.5454 24.5814 78.163 26.576 75.5775 26.576ZM75.5775 24.3598C76.9811 24.3598 77.7752 23.104 77.7752 21.1464C77.7752 19.2072 76.9811 17.9329 75.5775 17.9329C74.1739 17.9329 73.3798 19.2072 73.3798 21.1464C73.3798 23.104 74.1739 24.3598 75.5775 24.3598Z" fill="black"/>
<path d="M84.9992 26.3174L81.4718 15.9753H84.2051L85.7195 21.1279C85.9965 22.1436 86.2735 23.2148 86.5506 24.2675H86.6429C86.9199 23.2148 87.197 22.1436 87.474 21.1279L88.9884 15.9753H91.5924L88.1388 26.3174H84.9992Z" fill="black"/>
<path d="M97.675 26.576C94.7755 26.576 92.5224 24.563 92.5224 21.1464C92.5224 17.8036 94.8863 15.7167 97.3426 15.7167C100.187 15.7167 101.664 17.8036 101.664 20.6477C101.664 21.1648 101.609 21.6635 101.535 21.9036H95.1633C95.3849 23.6026 96.493 24.4891 98.0259 24.4891C98.8754 24.4891 99.6141 24.2305 100.353 23.7688L101.276 25.431C100.261 26.1328 98.9493 26.576 97.675 26.576ZM95.1264 20.0937H99.3371C99.3371 18.7086 98.7092 17.8221 97.3795 17.8221C96.2899 17.8221 95.3295 18.5978 95.1264 20.0937Z" fill="black"/>
<path d="M103.9 26.3174V15.9753H106.116L106.319 17.8036H106.374C107.132 16.4555 108.24 15.7167 109.311 15.7167C109.883 15.7167 110.216 15.8091 110.53 15.9384L110.068 18.2838C109.699 18.173 109.403 18.1176 108.978 18.1176C108.166 18.1176 107.187 18.6532 106.615 20.1491V26.3174H103.9Z" fill="black"/>
<path d="M121.362 26.576C119.46 26.576 118.814 25.3386 118.814 23.4179V11.5799H121.51V23.5288C121.51 24.1567 121.805 24.3598 122.046 24.3598C122.156 24.3598 122.249 24.3598 122.415 24.3229L122.747 26.3359C122.452 26.4652 122.009 26.576 121.362 26.576ZM112.405 26.3174V18.1176H111.02V16.1046L112.405 15.9938V15.1442C112.405 12.9835 113.402 11.3213 116.006 11.3213C116.801 11.3213 117.502 11.506 117.964 11.6722L117.465 13.6853C117.115 13.5375 116.708 13.4636 116.376 13.4636C115.563 13.4636 115.12 13.9438 115.12 15.0888V15.9753H117.059V18.1176H115.12V26.3174H112.405Z" fill="black"/>
<path d="M128.944 26.576C126.358 26.576 123.976 24.5814 123.976 21.1464C123.976 17.7113 126.358 15.7167 128.944 15.7167C131.529 15.7167 133.912 17.7113 133.912 21.1464C133.912 24.5814 131.529 26.576 128.944 26.576ZM128.944 24.3598C130.347 24.3598 131.141 23.104 131.141 21.1464C131.141 19.2072 130.347 17.9329 128.944 17.9329C127.54 17.9329 126.746 19.2072 126.746 21.1464C126.746 23.104 127.54 24.3598 128.944 24.3598Z" fill="black"/>
<path d="M137.756 26.3174L135.078 15.9753H137.793L138.92 21.0725C139.123 22.0882 139.252 23.067 139.437 24.1013H139.511C139.714 23.067 139.898 22.0698 140.157 21.0725L141.413 15.9753H143.814L145.106 21.0725C145.346 22.0882 145.531 23.067 145.753 24.1013H145.845C146.03 23.067 146.178 22.0882 146.362 21.0725L147.489 15.9753H150L147.452 26.3174H144.257L143.167 21.8112C142.946 20.8324 142.779 19.8905 142.576 18.8009H142.484C142.281 19.8905 142.133 20.8509 141.911 21.8112L140.859 26.3174H137.756Z" fill="black"/>
</svg>
