<svg width="150" height="32" viewBox="0 0 150 32" fill="none" xmlns="http://www.w3.org/2000/svg">
<path d="M3.07409 23.8833H0V32H24.1199V23.8833H21.0476V29.0506H3.07409V23.8833Z" fill="white"/>
<path d="M5.07884 24.2228H19.3916V26.5643H5.07884V24.2228Z" fill="#42C83C"/>
<path d="M36.0139 27.9692H50.3267V29.8424H36.0139V27.9692Z" fill="#42C83C"/>
<path d="M5.74705 19.0655L19.8149 21.6255L19.4397 23.7468L5.37182 21.1867L5.74705 19.0655Z" fill="#42C83C"/>
<path d="M7.13035 14.0729L20.5476 19.068L19.8154 21.0911L6.39823 16.096L7.13035 14.0729Z" fill="#42C83C"/>
<path d="M9.65349 8.81434L21.696 16.6219L20.5516 18.4378L8.50914 10.6302L9.65349 8.81434Z" fill="#42C83C"/>
<path d="M13.8305 4.19526L23.6833 14.6967L22.1441 16.1824L12.2913 5.68093L13.8305 4.19526Z" fill="#42C83C"/>
<path d="M22.9942 0L26.4203 14.074L24.3575 14.5906L20.9314 0.516617L22.9942 0Z" fill="#42C83C"/>
<path d="M33.5485 0.619445L29.8694 14.6276L27.8163 14.0728L31.4954 0.064691L33.5485 0.619445Z" fill="#42C83C"/>
<path d="M42.2884 6.34182L33.539 17.8047L31.8589 16.4854L40.6083 5.02253L42.2884 6.34182Z" fill="#42C83C"/>
<path d="M49.2121 17.7141L35.6996 22.4374L35.0073 20.3999L48.5199 15.6766L49.2121 17.7141Z" fill="#42C83C"/>
<path d="M41.6641 26.8804C40.7283 26.8804 39.9773 26.6806 39.4109 26.281C38.8569 25.8689 38.4506 25.2757 38.1921 24.5014C37.9458 23.7272 37.8227 22.7968 37.8227 21.7104V16.634C37.8227 15.5226 37.9335 14.5797 38.1551 13.8055C38.389 13.0187 38.7953 12.4193 39.374 12.0072C39.965 11.5951 40.7837 11.389 41.8303 11.389C42.766 11.389 43.517 11.5514 44.0834 11.8761C44.662 12.1883 45.0807 12.6753 45.3392 13.3372C45.5978 13.9865 45.727 14.8107 45.727 15.8098V16.3717H43.7694V15.9034C43.7694 15.2416 43.7263 14.7046 43.6401 14.2925C43.554 13.8679 43.3754 13.5557 43.1046 13.3559C42.846 13.1436 42.4336 13.0375 41.8672 13.0375C41.2516 13.0375 40.8022 13.1811 40.519 13.4683C40.2482 13.7555 40.0758 14.1489 40.0019 14.6484C39.9404 15.1354 39.9096 15.6912 39.9096 16.3156V21.9351C39.9096 22.6594 39.9588 23.2651 40.0573 23.7521C40.1681 24.2392 40.3713 24.6013 40.6668 24.8386C40.9623 25.0759 41.3809 25.1945 41.9226 25.1945C42.4643 25.1945 42.883 25.0634 43.1784 24.8011C43.4739 24.5389 43.6771 24.1518 43.7879 23.6398C43.8987 23.1277 43.9541 22.4909 43.9541 21.7291V20.6801H42.0519V19.1815H45.8378V26.6931H44.5266L44.3235 24.951C44.1265 25.513 43.8187 25.975 43.4001 26.3372C42.9814 26.6993 42.4028 26.8804 41.6641 26.8804Z" fill="white"/>
<path d="M47.1704 26.6931L50.347 11.5202H52.36L55.555 26.6931H53.5789L52.8956 22.8717H49.8483L49.1281 26.6931H47.1704ZM50.1253 21.3545H52.6185L51.3627 14.5173L50.1253 21.3545Z" fill="white"/>
<path d="M57.0728 26.6931V11.5202H58.4949L62.7425 21.598V11.5202H64.4785V26.6931H63.1488L58.8457 16.3343V26.6931H57.0728Z" fill="white"/>
<path d="M75.577 26.9553C72.9915 26.9553 70.6091 24.9323 70.6091 21.4481C70.6091 17.964 72.9915 15.9409 75.577 15.9409C78.1625 15.9409 80.5449 17.964 80.5449 21.4481C80.5449 24.9323 78.1625 26.9553 75.577 26.9553ZM75.577 24.7075C76.9806 24.7075 77.7747 23.4337 77.7747 21.4481C77.7747 19.4813 76.9806 18.1887 75.577 18.1887C74.1734 18.1887 73.3793 19.4813 73.3793 21.4481C73.3793 23.4337 74.1734 24.7075 75.577 24.7075Z" fill="white"/>
<path d="M84.9988 26.6931L81.4713 16.2032H84.2046L85.719 21.4294C85.996 22.4596 86.2731 23.5461 86.5501 24.6138H86.6424C86.9194 23.5461 87.1965 22.4596 87.4735 21.4294L88.9879 16.2032H91.5919L88.1383 26.6931H84.9988Z" fill="white"/>
<path d="M97.6745 26.9553C94.775 26.9553 92.5219 24.9135 92.5219 21.4481C92.5219 18.0576 94.8858 15.9409 97.3421 15.9409C100.186 15.9409 101.664 18.0576 101.664 20.9424C101.664 21.4668 101.608 21.9726 101.534 22.2161H95.1628C95.3845 23.9395 96.4925 24.8386 98.0254 24.8386C98.8749 24.8386 99.6137 24.5764 100.352 24.1081L101.276 25.7939C100.26 26.5057 98.9488 26.9553 97.6745 26.9553ZM95.1259 20.3804H99.3366C99.3366 18.9755 98.7087 18.0764 97.379 18.0764C96.2894 18.0764 95.3291 18.8631 95.1259 20.3804Z" fill="white"/>
<path d="M103.899 26.6931V16.2032H106.115L106.319 18.0576H106.374C107.131 16.6902 108.239 15.9409 109.31 15.9409C109.883 15.9409 110.215 16.0346 110.529 16.1657L110.068 18.5447C109.698 18.4323 109.403 18.3761 108.978 18.3761C108.165 18.3761 107.187 18.9193 106.614 20.4366V26.6931H103.899Z" fill="white"/>
<path d="M121.362 26.9553C119.46 26.9553 118.813 25.7003 118.813 23.7521V11.7449H121.509V23.8645C121.509 24.5014 121.805 24.7075 122.045 24.7075C122.156 24.7075 122.248 24.7075 122.414 24.67L122.747 26.7118C122.451 26.8429 122.008 26.9553 121.362 26.9553ZM112.405 26.6931V18.3761H111.02V16.3343L112.405 16.2219V15.3602C112.405 13.1686 113.402 11.4827 116.006 11.4827C116.8 11.4827 117.502 11.67 117.964 11.8386L117.465 13.8804C117.114 13.7305 116.708 13.6556 116.375 13.6556C115.563 13.6556 115.12 14.1426 115.12 15.304V16.2032H117.059V18.3761H115.12V26.6931H112.405Z" fill="white"/>
<path d="M128.943 26.9553C126.358 26.9553 123.975 24.9323 123.975 21.4481C123.975 17.964 126.358 15.9409 128.943 15.9409C131.529 15.9409 133.911 17.964 133.911 21.4481C133.911 24.9323 131.529 26.9553 128.943 26.9553ZM128.943 24.7075C130.347 24.7075 131.141 23.4337 131.141 21.4481C131.141 19.4813 130.347 18.1887 128.943 18.1887C127.54 18.1887 126.746 19.4813 126.746 21.4481C126.746 23.4337 127.54 24.7075 128.943 24.7075Z" fill="white"/>
<path d="M137.756 26.6931L135.078 16.2032H137.793L138.919 21.3732C139.122 22.4034 139.252 23.3962 139.436 24.4452H139.51C139.713 23.3962 139.898 22.3847 140.156 21.3732L141.412 16.2032H143.813L145.106 21.3732C145.346 22.4034 145.531 23.3962 145.752 24.4452H145.845C146.029 23.3962 146.177 22.4034 146.362 21.3732L147.488 16.2032H150L147.451 26.6931H144.256L143.167 22.1225C142.945 21.1297 142.779 20.1743 142.576 19.0692H142.483C142.28 20.1743 142.133 21.1484 141.911 22.1225L140.858 26.6931H137.756Z" fill="white"/>
</svg>
